# xmcd
# 
# Track frame offsets:
#     150
#     28467
#     65417
#     92065
#     125420
#     151725
# 
# Disc length: 2448
# 
# Revision: 1
# Processed by: cddbd v1.5.2PL0 Copyright (c) Steve Scherf et al.
# Submitted via: BonkEnc v1.0.8
# 
DISCID=49098e06
DTITLE=Art Farmer - Something You Got
DYEAR=1977
DGENRE=Fusion
TTITLE0=Something You Got
TTITLE1=Flute Song
TTITLE2=Saudhade
TTITLE3=Sandu
TTITLE4=Spain
TTITLE5=Hombre del Sol
EXTD=YEAR: 1977
EXTT0=
EXTT1=
EXTT2=
EXTT3=
EXTT4=
EXTT5=
PLAYORDER=
